<?xml version="1.0" encoding="utf-8"?>
<!-- Generator: Adobe Illustrator 16.0.0, SVG Export Plug-In . SVG Version: 6.00 Build 0)  -->
<!DOCTYPE svg PUBLIC "-//W3C//DTD SVG 1.1//EN" "http://www.w3.org/Graphics/SVG/1.1/DTD/svg11.dtd">
<svg version="1.1"
	 id="Layer_1" sodipodi:docname="logo_plataformas.svg" inkscape:version="0.91 r13725" xmlns:cc="http://creativecommons.org/ns#" xmlns:inkscape="http://www.inkscape.org/namespaces/inkscape" xmlns:dc="http://purl.org/dc/elements/1.1/" xmlns:svg="http://www.w3.org/2000/svg" xmlns:rdf="http://www.w3.org/1999/02/22-rdf-syntax-ns#" xmlns:sodipodi="http://sodipodi.sourceforge.net/DTD/sodipodi-0.dtd"
	 xmlns="http://www.w3.org/2000/svg" xmlns:xlink="http://www.w3.org/1999/xlink" x="0px" y="0px" width="230px" height="100px"
	 viewBox="35 5 230 100" enable-background="new 35 5 230 100" xml:space="preserve">
<g>
	<g>
		<path fill="#143655" d="M158.048,8.201h-3.75v16.042h2.16v-5.339h1.59c0.443,0,0.812,0.153,1.125,0.465
			c0.312,0.313,0.465,0.682,0.465,1.125v3.75h2.16v-3.75c0-1.029-0.371-1.92-1.1-2.65c-0.006-0.007-0.014-0.012-0.021-0.02
			c0.007-0.007,0.015-0.013,0.021-0.02c0.729-0.73,1.1-1.622,1.1-2.65v-3.204c0-1.029-0.371-1.92-1.1-2.65
			C159.968,8.571,159.076,8.201,158.048,8.201z M156.458,10.362h1.59c0.443,0,0.812,0.153,1.125,0.464
			c0.312,0.314,0.465,0.682,0.465,1.125v3.204c0,0.443-0.153,0.812-0.465,1.125c-0.313,0.312-0.682,0.464-1.125,0.464h-1.59V10.362z
			"/>
		<polygon fill="#143655" points="170.545,22.083 166.272,22.083 166.272,18.904 170.545,18.904 170.545,16.744 166.272,16.744 
			166.272,10.362 170.545,10.362 170.545,8.201 164.113,8.201 164.113,24.243 170.545,24.243 		"/>
		<path fill="#143655" d="M179.26,23.144c0.73-0.729,1.1-1.622,1.1-2.65v-8.542c0-1.029-0.369-1.92-1.1-2.65
			c-0.729-0.729-1.621-1.1-2.649-1.1h-3.749v16.042h3.749C177.639,24.243,178.53,23.874,179.26,23.144z M178.199,20.494
			c0,0.443-0.153,0.812-0.465,1.125c-0.313,0.311-0.682,0.464-1.124,0.464h-1.59V10.362h1.59c0.442,0,0.811,0.153,1.124,0.464
			c0.312,0.314,0.465,0.682,0.465,1.125V20.494z"/>
		<polygon fill="#143655" points="189.105,22.083 184.834,22.083 184.834,18.904 189.105,18.904 189.105,16.744 184.834,16.744 
			184.834,10.362 189.105,10.362 189.105,8.201 182.674,8.201 182.674,24.243 189.105,24.243 		"/>
		<path fill="#143655" d="M203.365,23.144c0.73-0.729,1.1-1.622,1.1-2.65v-8.542c0-1.029-0.369-1.92-1.1-2.65
			c-0.729-0.729-1.621-1.1-2.65-1.1h-3.75v16.042h3.75C201.744,24.243,202.636,23.874,203.365,23.144z M202.305,20.494
			c0,0.443-0.153,0.812-0.466,1.125c-0.313,0.311-0.681,0.464-1.124,0.464h-1.589V10.362h1.589c0.443,0,0.812,0.153,1.124,0.464
			c0.313,0.314,0.466,0.682,0.466,1.125V20.494z"/>
		<polygon fill="#143655" points="213.212,22.083 208.941,22.083 208.941,18.904 213.212,18.904 213.212,16.744 208.941,16.744 
			208.941,10.362 213.212,10.362 213.212,8.201 206.779,8.201 206.779,24.243 213.212,24.243 		"/>
		<path fill="#143655" d="M158.048,34.445h-3.75v16.043h2.16v-5.339h1.59c1.028,0,1.92-0.371,2.65-1.1
			c0.729-0.73,1.1-1.622,1.1-2.65v-3.204c0-1.029-0.371-1.92-1.1-2.65C159.968,34.815,159.076,34.445,158.048,34.445z
			 M156.458,36.606h1.59c0.443,0,0.812,0.153,1.125,0.464c0.312,0.313,0.465,0.682,0.465,1.125v3.204
			c0,0.443-0.153,0.812-0.465,1.125c-0.313,0.311-0.682,0.464-1.125,0.464h-1.59V36.606z"/>
		<polygon fill="#143655" points="170.394,48.327 166.121,48.327 166.121,34.445 163.96,34.445 163.96,50.488 170.394,50.488 		"/>
		<path fill="#143655" d="M174.715,45.149h3.179v5.339h2.161V34.445h-3.751c-1.028,0-1.92,0.37-2.648,1.1
			c-0.729,0.73-1.1,1.621-1.1,2.65v12.293h2.159V45.149z M176.304,36.606h1.59v6.382h-3.179v-4.793c0-0.443,0.152-0.812,0.465-1.125
			C175.492,36.759,175.86,36.606,176.304,36.606z"/>
		<polygon fill="#143655" points="184.35,50.488 186.511,50.488 186.511,36.606 188.647,36.606 188.647,34.445 182.215,34.445 
			182.215,36.606 184.35,36.606 		"/>
		<path fill="#143655" d="M191.9,45.149h3.18v5.339h2.16V34.445h-3.75c-1.028,0-1.919,0.37-2.649,1.1
			c-0.729,0.73-1.101,1.621-1.101,2.65v12.293h2.16V45.149z M193.49,36.606h1.59v6.382h-3.18v-4.793
			c0-0.443,0.155-0.812,0.466-1.125C192.679,36.759,193.047,36.606,193.49,36.606z"/>
		<polygon fill="#143655" points="199.402,50.488 201.563,50.488 201.563,45.149 205.835,45.149 205.835,42.988 201.563,42.988 
			201.563,36.606 205.835,36.606 205.835,34.445 199.402,34.445 		"/>
		<path fill="#143655" d="M209.098,35.545c-0.729,0.73-1.101,1.621-1.101,2.65v8.543c0,1.028,0.371,1.92,1.101,2.65
			c0.73,0.73,1.621,1.101,2.649,1.101c1.029,0,1.921-0.371,2.65-1.101c0.73-0.729,1.1-1.622,1.1-2.65v-8.543
			c0-1.029-0.369-1.92-1.1-2.65C212.938,34.085,210.557,34.085,209.098,35.545z M210.158,38.195c0-0.443,0.154-0.812,0.465-1.125
			c0.313-0.312,0.681-0.464,1.124-0.464c0.444,0,0.813,0.153,1.125,0.464c0.313,0.313,0.465,0.682,0.465,1.125v8.543
			c0,0.443-0.152,0.812-0.465,1.125c-0.627,0.623-1.623,0.623-2.249,0c-0.311-0.313-0.465-0.682-0.465-1.125V38.195z"/>
		<path fill="#143655" d="M219.821,45.149h1.588c0.445,0,0.813,0.153,1.126,0.464c0.312,0.313,0.464,0.681,0.464,1.125v3.75h2.161
			v-3.75c0-1.029-0.371-1.92-1.101-2.65c-0.004-0.007-0.012-0.013-0.02-0.02c0.008-0.007,0.016-0.012,0.02-0.019
			c0.729-0.73,1.101-1.622,1.101-2.65v-3.204c0-1.029-0.371-1.92-1.101-2.65s-1.621-1.1-2.65-1.1h-3.75v16.043h2.162V45.149z
			 M222.999,41.398c0,0.443-0.152,0.812-0.464,1.125c-0.313,0.311-0.681,0.464-1.126,0.464h-1.588v-6.382h1.588
			c0.445,0,0.813,0.153,1.126,0.464c0.312,0.313,0.464,0.682,0.464,1.125V41.398z"/>
		<path fill="#143655" d="M236.41,34.445c-1.028,0-1.92,0.37-2.65,1.1c-0.006,0.005-0.012,0.012-0.02,0.02
			c-0.008-0.008-0.012-0.015-0.02-0.02c-0.729-0.73-1.622-1.1-2.65-1.1c-1.027,0-1.92,0.37-2.649,1.1s-1.1,1.621-1.1,2.65v12.293
			h2.16V38.195c0-0.443,0.152-0.812,0.465-1.125c0.626-0.623,1.623-0.623,2.249,0c0.312,0.313,0.465,0.682,0.465,1.125v12.293h2.16
			V38.195c0-0.443,0.153-0.812,0.465-1.125c0.626-0.623,1.623-0.623,2.249,0c0.312,0.313,0.465,0.682,0.465,1.125v12.293h2.16
			V38.195c0-1.029-0.369-1.92-1.1-2.65C238.331,34.815,237.439,34.445,236.41,34.445z"/>
		<path fill="#143655" d="M243.422,35.545c-0.729,0.73-1.1,1.621-1.1,2.65v12.293h2.16v-5.339h3.179v5.339h2.161V34.445h-3.751
			C245.043,34.445,244.151,34.815,243.422,35.545z M246.071,36.606h1.59v6.382h-3.179v-4.793c0-0.443,0.153-0.812,0.465-1.125
			C245.261,36.759,245.629,36.606,246.071,36.606z"/>
		<path fill="#143655" d="M259.484,39.809v-1.614c0-1.029-0.369-1.92-1.1-2.65s-1.622-1.1-2.651-1.1s-1.92,0.37-2.648,1.1
			c-0.73,0.73-1.101,1.621-1.101,2.65v1.068c0,1.344,0.95,2.645,2.907,3.976c2.256,1.534,2.432,2.249,2.432,2.431v1.068
			c0,0.443-0.154,0.812-0.465,1.125c-0.625,0.623-1.623,0.623-2.25,0c-0.31-0.313-0.463-0.682-0.463-1.125v-1.614h-2.161v1.614
			c0,1.028,0.37,1.92,1.101,2.65c0.729,0.73,1.619,1.101,2.648,1.101s1.921-0.371,2.651-1.101c0.73-0.729,1.1-1.622,1.1-2.65V45.67
			c0-1.343-0.949-2.645-2.909-3.975c-2.256-1.535-2.43-2.249-2.43-2.432v-1.068c0-0.443,0.153-0.812,0.463-1.125
			c0.627-0.623,1.625-0.623,2.25,0c0.311,0.313,0.465,0.682,0.465,1.125v1.614H259.484z"/>
		<polygon fill="#143655" points="154.298,62.848 156.434,62.848 156.434,76.73 158.594,76.73 158.594,62.848 160.729,62.848 
			160.729,60.688 154.298,60.688 		"/>
		<polygon fill="#143655" points="169.411,74.57 165.141,74.57 165.141,71.392 169.411,71.392 169.411,69.23 165.141,69.23 
			165.141,62.848 169.411,62.848 169.411,60.688 162.98,60.688 162.98,76.73 169.411,76.73 		"/>
		<path fill="#143655" d="M179.16,72.98v-1.614H177v1.614c0,0.443-0.153,0.812-0.465,1.125c-0.626,0.623-1.623,0.623-2.249,0
			c-0.312-0.313-0.465-0.682-0.465-1.125v-8.543c0-0.443,0.153-0.812,0.465-1.125c0.626-0.622,1.623-0.622,2.249,0
			c0.312,0.313,0.465,0.682,0.465,1.125v1.614h2.16v-1.614c0-1.029-0.369-1.92-1.1-2.65c-0.729-0.73-1.62-1.1-2.65-1.1
			c-1.027,0-1.92,0.369-2.649,1.1s-1.1,1.621-1.1,2.65v8.543c0,1.028,0.37,1.92,1.1,2.65c0.729,0.729,1.622,1.1,2.649,1.1
			c1.03,0,1.921-0.371,2.65-1.1C178.791,74.9,179.16,74.009,179.16,72.98z"/>
		<path fill="#143655" d="M188.91,76.73V64.438c0-1.029-0.37-1.92-1.1-2.65c-0.731-0.73-1.622-1.1-2.65-1.1h-3.75V76.73h2.161
			V62.848h1.589c0.443,0,0.812,0.153,1.125,0.465c0.312,0.313,0.465,0.682,0.465,1.125V76.73H188.91z"/>
		<path fill="#143655" d="M198.66,72.98v-8.543c0-1.029-0.371-1.92-1.101-2.65c-0.73-0.73-1.622-1.1-2.649-1.1
			c-1.029,0-1.921,0.369-2.649,1.1c-0.731,0.73-1.103,1.621-1.103,2.65v8.543c0,1.028,0.371,1.92,1.103,2.65
			c0.729,0.729,1.62,1.1,2.649,1.1c1.027,0,1.919-0.371,2.649-1.1C198.289,74.9,198.66,74.009,198.66,72.98z M193.32,64.438
			c0-0.443,0.153-0.812,0.464-1.125c0.314-0.312,0.683-0.465,1.126-0.465s0.812,0.153,1.124,0.465
			c0.312,0.313,0.465,0.682,0.465,1.125v8.543c0,0.443-0.153,0.812-0.465,1.125c-0.626,0.623-1.622,0.623-2.25,0
			c-0.311-0.313-0.464-0.682-0.464-1.125V64.438z"/>
		<polygon fill="#143655" points="200.908,60.688 200.908,76.73 207.341,76.73 207.341,74.57 203.068,74.57 203.068,60.688 		"/>
		<path fill="#143655" d="M212.273,60.688c-1.029,0-1.922,0.369-2.65,1.1c-0.73,0.73-1.1,1.621-1.1,2.65v8.543
			c0,1.028,0.369,1.92,1.1,2.65c0.729,0.729,1.621,1.1,2.65,1.1c1.028,0,1.92-0.371,2.649-1.1c0.729-0.73,1.1-1.622,1.1-2.65v-8.543
			c0-1.029-0.37-1.92-1.1-2.65S213.302,60.688,212.273,60.688z M210.684,64.438c0-0.443,0.152-0.812,0.465-1.125
			c0.313-0.312,0.682-0.465,1.125-0.465c0.442,0,0.811,0.153,1.124,0.465c0.311,0.313,0.465,0.682,0.465,1.125v8.543
			c0,0.443-0.154,0.812-0.465,1.125c-0.626,0.623-1.623,0.623-2.249,0c-0.313-0.313-0.465-0.682-0.465-1.125V64.438z"/>
		<path fill="#143655" d="M222.023,60.688c-1.029,0-1.922,0.369-2.65,1.1c-0.73,0.73-1.101,1.621-1.101,2.65v8.543
			c0,1.028,0.37,1.92,1.101,2.65c0.729,0.729,1.621,1.1,2.65,1.1c1.028,0,1.919-0.371,2.649-1.1c0.729-0.73,1.1-1.622,1.1-2.65
			v-3.75h-4.297v2.161h2.136v1.589c0,0.443-0.153,0.812-0.464,1.125c-0.626,0.623-1.623,0.623-2.25,0
			c-0.312-0.313-0.464-0.682-0.464-1.125v-8.543c0-0.443,0.152-0.812,0.464-1.125c0.627-0.622,1.624-0.622,2.25,0
			c0.311,0.313,0.464,0.682,0.464,1.125v1.614h2.161v-1.614c0-1.029-0.37-1.92-1.1-2.65
			C223.942,61.057,223.052,60.688,222.023,60.688z"/>
		<rect x="228.021" y="60.688" fill="#143655" width="2.161" height="16.043"/>
		<path fill="#143655" d="M236.182,60.688c-1.029,0-1.92,0.369-2.65,1.1c-0.729,0.73-1.1,1.621-1.1,2.65v8.543
			c0,1.028,0.37,1.92,1.1,2.65c0.73,0.729,1.621,1.1,2.65,1.1c1.028,0,1.92-0.371,2.65-1.1c0.729-0.73,1.1-1.622,1.1-2.65v-1.614
			h-2.16v1.614c0,0.443-0.152,0.812-0.465,1.125c-0.626,0.623-1.623,0.623-2.25,0c-0.312-0.313-0.464-0.682-0.464-1.125v-8.543
			c0-0.443,0.152-0.812,0.464-1.125c0.627-0.622,1.624-0.622,2.25,0c0.313,0.313,0.465,0.682,0.465,1.125v1.614h2.16v-1.614
			c0-1.029-0.371-1.92-1.1-2.65C238.102,61.057,237.21,60.688,236.182,60.688z"/>
		<path fill="#143655" d="M243.281,61.787c-0.729,0.73-1.101,1.621-1.101,2.65V76.73h2.162v-5.339h3.179v5.339h2.16V60.688h-3.75
			C244.902,60.688,244.011,61.057,243.281,61.787z M245.932,62.848h1.59v6.383h-3.179v-4.793c0-0.443,0.152-0.812,0.463-1.125
			C245.121,63.001,245.488,62.848,245.932,62.848z"/>
		<path fill="#143655" d="M253.029,61.787c-0.73,0.73-1.1,1.621-1.1,2.65v1.068c0,1.344,0.95,2.645,2.907,3.975
			c2.256,1.535,2.432,2.249,2.432,2.432v1.068c0,0.443-0.154,0.812-0.465,1.125c-0.627,0.623-1.623,0.623-2.25,0
			c-0.311-0.313-0.464-0.682-0.464-1.125v-1.614h-2.16v1.614c0,1.028,0.369,1.92,1.1,2.65c0.729,0.729,1.62,1.1,2.649,1.1
			c1.027,0,1.921-0.371,2.651-1.1c0.729-0.73,1.1-1.622,1.1-2.65v-1.068c0-1.343-0.949-2.645-2.909-3.977
			c-2.255-1.533-2.431-2.247-2.431-2.43v-1.068c0-0.443,0.153-0.812,0.464-1.125c0.627-0.622,1.623-0.622,2.25,0
			c0.311,0.313,0.465,0.682,0.465,1.125v1.614h2.161v-1.614c0-1.029-0.371-1.92-1.1-2.65
			C256.87,60.328,254.489,60.328,253.029,61.787z"/>
		<polygon fill="#143655" points="199.629,102.974 201.789,102.974 201.789,97.635 206.062,97.635 206.062,95.475 201.789,95.475 
			201.789,89.092 206.062,89.092 206.062,86.932 199.629,86.932 		"/>
		<rect x="208.377" y="86.932" fill="#143655" width="2.161" height="16.042"/>
		<path fill="#143655" d="M216.604,86.932c-1.029,0-1.921,0.37-2.65,1.101c-0.73,0.729-1.101,1.621-1.101,2.649v8.543
			c0,1.029,0.37,1.921,1.101,2.649c0.729,0.73,1.621,1.1,2.65,1.1c1.028,0,1.92-0.369,2.65-1.1c0.729-0.729,1.099-1.62,1.099-2.649
			v-8.543c0-1.028-0.37-1.92-1.099-2.649C218.523,87.302,217.632,86.932,216.604,86.932z M215.014,90.682
			c0-0.443,0.153-0.812,0.464-1.124c0.313-0.312,0.682-0.466,1.126-0.466c0.442,0,0.812,0.154,1.125,0.466
			c0.311,0.313,0.463,0.681,0.463,1.124v8.543c0,0.442-0.152,0.812-0.463,1.124c-0.628,0.623-1.624,0.623-2.251,0
			c-0.311-0.313-0.464-0.682-0.464-1.124V90.682z"/>
		<path fill="#143655" d="M226.416,86.932c-1.028,0-1.92,0.37-2.65,1.101c-0.729,0.729-1.1,1.621-1.1,2.649v8.543
			c0,1.029,0.371,1.921,1.1,2.649c0.73,0.73,1.622,1.1,2.65,1.1c1.029,0,1.921-0.369,2.65-1.1c0.729-0.729,1.101-1.62,1.101-2.649
			V97.61h-2.161v1.614c0,0.442-0.153,0.812-0.464,1.124c-0.628,0.623-1.624,0.623-2.251,0c-0.311-0.313-0.465-0.682-0.465-1.124
			v-8.543c0-0.443,0.154-0.812,0.465-1.124c0.627-0.624,1.623-0.624,2.251,0c0.311,0.313,0.464,0.681,0.464,1.124v1.614h2.161
			v-1.614c0-1.028-0.371-1.92-1.101-2.649C228.337,87.302,227.445,86.932,226.416,86.932z"/>
		<path fill="#143655" d="M236.232,86.932h-3.75v16.042h2.16v-5.339h1.59c0.442,0,0.811,0.154,1.124,0.465
			c0.313,0.313,0.465,0.682,0.465,1.125v3.749h2.161v-3.749c0-1.028-0.371-1.92-1.101-2.65c-0.005-0.006-0.013-0.012-0.02-0.02
			c0.007-0.006,0.015-0.012,0.02-0.02c0.729-0.729,1.101-1.62,1.101-2.65v-3.203c0-1.028-0.371-1.92-1.101-2.649
			C238.151,87.302,237.261,86.932,236.232,86.932z M234.643,89.092h1.59c0.442,0,0.811,0.154,1.124,0.466
			c0.313,0.313,0.465,0.681,0.465,1.124v3.203c0,0.443-0.152,0.813-0.465,1.125c-0.313,0.313-0.682,0.465-1.124,0.465h-1.59V89.092z
			"/>
		<path fill="#143655" d="M247.636,99.225c0,0.442-0.152,0.812-0.464,1.124c-0.627,0.623-1.624,0.623-2.25,0
			c-0.311-0.313-0.465-0.682-0.465-1.124V86.932h-2.16v12.293c0,1.029,0.37,1.921,1.1,2.649c0.73,0.73,1.622,1.1,2.65,1.1
			c1.029,0,1.921-0.369,2.649-1.1c0.73-0.729,1.101-1.62,1.101-2.649V86.932h-2.161V99.225z"/>
		<path fill="#143655" d="M252.113,89.092h5.339v2.658c0,0.183-0.178,0.897-2.432,2.431c-1.958,1.332-2.907,2.632-2.907,3.977v4.816
			h7.5v-2.16h-5.34v-2.656c0-0.185,0.175-0.896,2.431-2.432c1.958-1.331,2.909-2.632,2.909-3.976v-4.818h-7.5V89.092z"/>
		<polygon fill="#143655" points="215.067,57.05 212.273,59.423 212.904,60.276 216.03,58.326 		"/>
	</g>
	<g id="g2484_4_" transform="matrix(0.32483133,0,0,0.44220749,10.405706,-65.229277)">
		<path id="path2486_4_" inkscape:connector-curvature="0" fill="#47DEF9" d="M419.644,380.886c-0.944,0-1.687-0.757-1.687-1.687
			V165.644c0-0.934,0.743-1.692,1.687-1.692c0.938,0,1.694,0.762,1.694,1.692v213.555
			C421.339,380.129,420.582,380.886,419.644,380.886z"/>
	</g>
	<g id="g2470_6_" transform="matrix(0.41517674,0,0,0.42341131,-12.090579,-58.686605)">
		<path id="path2472_6_" inkscape:connector-curvature="0" fill="#47DEF9" d="M232.642,243.565
			c-0.319-6.711-5.866-11.943-12.738-11.804c-6.758,0.111-12.491,5.465-13.17,12.071c-0.026,0.261-0.054,0.529-0.066,0.791
			c-0.02,0.264,0.004,0.52,0.008,0.789c0.141,6.731,5.579,12.116,12.51,12.108c7.013,0.003,12.899-5.512,13.419-12.372
			c0.024-0.262,0.039-0.519,0.055-0.777C232.662,244.096,232.644,243.825,232.642,243.565z"/>
		<path id="path2474_6_" inkscape:connector-curvature="0" fill="#143655" d="M361.766,232.149
			c-1.335-5.022-3.99-10.373-5.958-12.026c-2.128-1.785-2.8,0.963-1.555,6.223c-0.744-0.417-1.515-0.842-2.32-1.259
			c-1.472-5.377-5.099-10.804-8.416-12.624c-0.48-1.54-0.957-3.051-1.472-4.551c3.267,1.523,4.234-0.906,2.247-5.409
			c-1.946-4.419-6.213-9.607-9.65-11.715c-3.673-2.244-5.297-0.408-3.434,4.303c1.906,4.805,6.453,10.344,10.193,12.477
			c0.495,1.5,0.988,3.044,1.471,4.586c-3.477-1.427-5.384,1.725-4.286,7.409c-1.304-0.441-2.64-0.868-4.01-1.292
			c-1.456-5.878-6.288-11.6-11.247-13.298c-0.454-1.824-0.927-3.619-1.415-5.372c4.829,1.288,7.189-1.483,5.374-6.262
			c-1.768-4.638-7.065-9.821-11.95-11.647c-4.991-1.86-8.016,0.231-6.857,4.769c-1.909-0.525-3.832-1.047-5.799-1.531
			c-1.599-4.71-7.483-9.4-13.561-10.652c-6.263-1.299-10.828,1.393-10.349,6.073c-2.33-0.329-4.688-0.632-7.08-0.888
			c-0.98-4.773-7.108-8.926-14.008-9.409c-7.192-0.498-13.082,3.14-13.064,8.126c0.026,5.271,6.091,9.975,13.661,10.669
			c0.089,2.065,0.195,4.163,0.287,6.316c-7.429-0.075-13.439,4.793-13.84,11.284c-2.871-0.039-5.76-0.061-8.631-0.044
			c-0.226-6.459-6.062-11.384-13.426-11.384c0.191-2.565,0.374-5.056,0.573-7.481c6.695-0.578,12.215-4.698,12.39-9.384
			c0.195-4.322-4.606-7.536-10.741-7.42c0.229-2.015,0.467-3.943,0.724-5.773c5.9-0.534,10.775-3.169,10.955-6.073
			c0.173-2.674-4.267-4.57-9.879-4.176c-5.558,0.414-10.653,2.922-11.37,5.614c-0.777,2.888,3.234,4.931,9.013,4.724
			c-0.272,1.819-0.53,3.748-0.777,5.76c-5.905,0.581-11.07,4.116-12.064,8.214c-3.402,0.344-6.761,0.732-10.067,1.186
			c0.537-4.043-3.241-6.426-8.654-5.366c-5.441,1.078-10.838,5.342-12.118,9.572c-1.313,4.348,1.962,7.189,7.416,6.553
			c-0.53,2.422-1.04,4.947-1.522,7.519c-6.224,1.23-11.947,6.724-13.309,12.776c-2.27,0.374-4.501,0.778-6.67,1.192
			c0.9-6.002-2.438-9.624-7.566-8.174c-4.958,1.39-10.047,7.283-11.431,13.215c-1.403,5.969,1.327,10.208,6.132,9.589
			c-0.421,2.535-0.804,5.104-1.151,7.721c-4.713,1.037-8.941,6.712-9.78,13.119c-1.731,0.214-3.404,0.441-5.005,0.672
			c0.454-6.315-1.826-10.634-5.211-9.708c-3.164,0.864-6.273,6.427-6.933,12.44c-0.648,5.909,1.254,10.554,4.229,10.636
			c-0.138,2.592-0.221,5.201-0.272,7.807c-2.872,0.314-5.043,4.903-4.987,10.607c-1.244-0.131-2.432-0.288-3.524-0.434
			c-0.276-4.784-1.584-8.598-3.071-8.614c-1.344-0.012-2.332,3.69-2.148,8.268c0.189,4.405,1.409,8.326,2.709,9.013
			c0.285,3.164,0.649,6.276,1.107,9.371c-1.276-0.434-1.665,2.431-0.817,6.564c0.83,4.057,2.607,8.167,4.035,9.408
			c0.735,2.862,1.55,5.685,2.43,8.421c-1.3-0.996-1.3,0.872,0.031,4.253c1.323,3.418,3.581,7.327,5.081,8.827
			c1.545,1.513,1.801,0.088,0.582-3.289c1.402,1.107,2.931,2.173,4.588,3.231c1.396,3.533,4.241,7.321,6.685,8.9
			c1.102,2.645,2.255,5.166,3.468,7.59c-2.332-1.347-2.874-0.242-1.205,2.507c1.642,2.747,4.951,6.29,7.469,7.985
			c2.641,1.794,3.596,1.043,2.015-1.787c-1.584-2.848-4.992-6.497-7.656-8.31c-1.211-2.419-2.375-4.97-3.477-7.627
			c2.409,1.229,3.484-0.447,2.418-3.981c2.363,1.112,4.9,2.182,7.542,3.213c1.377,3.748,5.008,7.632,8.562,9.085
			c1.008,2.95,2.076,5.722,3.19,8.354c-3.381-1.153-4.864,0.138-3.381,2.98c1.468,2.791,5.437,6.218,8.963,7.687
			c3.489,1.495,5.444,0.577,4.449-2.02c3.213,1.126,6.571,2.166,10.026,3.13c1.321,2.756,5.575,5.685,9.854,6.716
			c4.544,1.086,7.667-0.358,6.878-3.208c-0.853-3.072-5.582-6.453-10.474-7.526c-4.551-0.983-7.327,0.521-6.517,3.317
			c-3.48-0.959-6.855-1.99-10.093-3.114c-1.474-2.818-5.266-6.084-8.818-7.62c-1.105-2.634-2.139-5.439-3.139-8.352
			c3.706,1.079,5.913-1.093,4.833-5.159c-1.127-4.274-5.259-8.734-9.295-10.181c-0.856-3.607-1.65-7.374-2.367-11.265
			c3.967,0.669,6.637-2.745,5.935-7.964c-0.733-5.625-4.941-10.817-9.29-11.564c-4.108-0.664-6.717,3.102-5.885,8.37
			c0.786,4.936,4.423,9.662,8.26,10.919c0.726,3.859,1.524,7.613,2.404,11.216c-3.502-0.81-5.356,1.462-4.393,5.219
			c-2.659-1.013-5.198-2.055-7.562-3.134c-1.482-4.02-4.791-8.308-7.472-9.627c-2.512-1.22-3.428,0.77-2.263,4.366
			c-1.634-1.038-3.173-2.106-4.567-3.178c-1.381-3.471-3.54-7.191-5.032-8.647c-0.882-2.756-1.708-5.591-2.451-8.485
			c1.375,0.784,1.879-1.642,1.148-5.741c1.293,0.673,2.71,1.328,4.22,1.97c1.02,4.652,3.834,9.17,6.453,10.296
			c2.948,1.239,4.648-1.956,3.751-7.205c-0.895-5.136-3.862-9.989-6.727-11.112c-0.4-3.012-0.732-6.064-1.008-9.145
			c3.192,0.295,5.59-4.228,5.553-10.462c1.645,0.145,3.374,0.281,5.155,0.415c0.447,6.696,4.576,12.498,9.425,13.07
			c5.239,0.625,9.444-4.641,9.55-11.871c2.503,0.136,5.074,0.261,7.702,0.385c0.488,7.168,5.678,13.255,12.058,14.065
			c0.141,3.259,0.313,6.476,0.527,9.668c-6.468-0.219-10.96,4.931-10.168,11.735c0.79,6.772,6.706,13.004,13.266,13.949
			c6.834,0.994,12.051-3.949,11.542-11.057c-0.516-7.127-6.446-13.518-13.274-14.514c-0.209-3.194-0.381-6.421-0.53-9.692
			c6.675,0.06,12.041-5.635,12.336-13.172c3.291,0.104,6.631,0.196,10.026,0.274c0.463,7.828,6.897,14.24,14.743,14.459
			c8.242,0.242,15.042-6.368,15.099-14.727c0.055-8.432-6.738-15.384-15.093-15.439c-7.933-0.069-14.385,6.207-14.762,14.078
			c-3.393-0.076-6.731-0.166-10.038-0.256c-0.44-7.634-5.974-13.792-12.736-14.238c0.044-3.26,0.116-6.504,0.223-9.741
			c6.947-0.517,12.863-6.815,13.608-14.48c3.262-0.113,6.546-0.189,9.837-0.264c0.101,7.602,6.226,13.721,14.028,13.713
			c7.944-0.007,14.587-6.237,15.109-14.021c3.854,0.013,7.692,0.048,11.543,0.091c0.362,7.752,6.866,14.089,14.801,14.209
			c7.823,0.121,14.089-5.855,14.36-13.456c3.633,0.136,7.271,0.292,10.863,0.464c0.595,7.479,6.463,13.653,13.361,13.905
			c6.832,0.246,12.036-5.659,11.662-13.087c-0.378-7.306-6.072-13.721-12.771-14.327c-6.733-0.617-12.143,4.699-12.296,11.969
			c-3.575-0.183-7.189-0.347-10.856-0.482c-0.548-7.199-6.472-13.156-13.739-13.776c-0.045-3.178-0.112-6.301-0.191-9.368
			c8.043-0.045,14.053-5.673,13.567-12.756c-0.473-6.744-6.9-12.526-14.494-13.28c-0.122-2.14-0.231-4.244-0.349-6.305
			c7.189,0.149,12.41-3.548,12.098-8.526c2.411,0.271,4.777,0.573,7.134,0.898c1.201,5.21,7.568,10.355,14.375,11.517
			c6.554,1.144,10.711-2.02,9.64-6.965c1.978,0.476,3.901,0.988,5.798,1.528c1.732,4.865,7.035,10.054,12.187,11.901
			c0.486,1.761,0.968,3.557,1.412,5.373c-5.345-1.251-8.891,2.714-7.806,9.211c1.135,6.812,6.632,13.359,12.315,14.806
			c0.298,2.151,0.569,4.34,0.822,6.559c-5.637-0.558-9.848,4.944-9.413,12.652c0.473,8.111,5.793,15.039,11.805,15.346
			c5.536,0.281,9.559-5.587,9.009-13.024c-0.542-7.101-5.122-13.582-10.38-14.803c-0.253-2.2-0.522-4.376-0.833-6.54
			c4.996,0.687,7.984-3.45,6.96-9.46c1.375,0.408,2.694,0.842,3.996,1.265c1.556,6.256,5.763,12.327,9.544,13.576
			c3.417,1.099,5.028-2.574,3.813-8.162c0.814,0.415,1.578,0.838,2.327,1.27c1.509,5.575,4.306,11.044,6.376,12.259
			c1.852,1.087,2.257-2.311,0.88-7.46l0,0l0.011,0.001V232.149L361.766,232.149L361.766,232.149z M331.96,195.447
			c-1.67-4.253-0.256-5.926,3.064-3.915c3.111,1.907,6.995,6.595,8.749,10.605c1.769,4.069,0.882,6.2-2.05,4.827
			c-0.102-0.046-0.163-0.059-0.259-0.091c-0.131-0.073-0.253-0.17-0.387-0.255C337.73,204.692,333.679,199.742,331.96,195.447
			L331.96,195.447z M153.343,360.198c1.39,2.468,0.576,3.155-1.711,1.596c-2.213-1.485-5.108-4.587-6.546-6.988
			c-1.416-2.378-0.964-3.33,1.029-2.184c0.088,0.06,0.174,0.085,0.279,0.152c0.108,0.069,0.233,0.164,0.348,0.249
			C149.04,354.591,151.972,357.744,153.343,360.198z M191.163,369.903c4.214,0.911,8.301,3.845,9.05,6.497
			c0.717,2.486-1.963,3.718-5.936,2.798c-3.688-0.89-7.371-3.402-8.537-5.787c-0.052-0.104-0.14-0.231-0.182-0.353
			c-0.052-0.12-0.049-0.231-0.079-0.346C184.83,370.319,187.245,369.036,191.163,369.903z M173.374,368.965
			c0.067,0.129,0.159,0.251,0.218,0.383c0.049,0.102,0.065,0.215,0.106,0.307c0.82,2.219-0.837,2.989-3.846,1.718
			c-3.072-1.275-6.538-4.265-7.82-6.709c-1.26-2.433,0.022-3.538,2.906-2.56c0.145,0.053,0.266,0.078,0.425,0.138
			c0.156,0.067,0.323,0.145,0.485,0.217C168.87,363.789,172.085,366.568,173.374,368.965z M147.181,315.763
			c-0.728-4.59,1.569-7.86,5.134-7.258c3.775,0.65,7.408,5.18,8.056,10.028c0.613,4.507-1.665,7.482-5.074,6.968
			c-0.161-0.016-0.315-0.007-0.493-0.055c-0.158-0.042-0.319-0.125-0.486-0.178C150.992,324.135,147.863,320.053,147.181,315.763z
			 M166.092,347.838c0.931,3.467-0.919,5.367-4.077,4.495c-0.149-0.053-0.301-0.06-0.466-0.12c-0.161-0.074-0.321-0.148-0.488-0.205
			c-3.013-1.285-6.09-4.551-7.278-7.75c-0.058-0.173-0.146-0.351-0.193-0.51c-0.053-0.168-0.073-0.328-0.115-0.482
			c-0.773-3.181,0.801-5.074,3.763-4.41c0.151,0.032,0.298,0.035,0.454,0.081c0.175,0.058,0.332,0.143,0.501,0.208
			C161.612,340.427,165.107,344.217,166.092,347.838z M144.235,339.394c0.068,0.164,0.141,0.334,0.199,0.503
			c0.052,0.152,0.083,0.302,0.129,0.445c0.88,2.971-0.02,4.398-2.053,3.393c-0.101-0.048-0.198-0.069-0.305-0.143
			c-0.099-0.058-0.212-0.143-0.313-0.212c-2.079-1.386-4.479-4.594-5.702-7.586c-0.066-0.157-0.143-0.304-0.196-0.454
			c-0.058-0.175-0.086-0.318-0.138-0.475c-0.977-3.061-0.163-4.742,1.996-3.663C140.143,332.35,142.926,335.974,144.235,339.394z
			 M130.277,330.999c0.065,0.143,0.133,0.309,0.189,0.468c0.059,0.131,0.089,0.254,0.135,0.371c1.034,2.901,0.823,4.147-0.506,2.855
			c-1.317-1.317-3.298-4.733-4.462-7.733c-1.135-2.938-1.15-4.557-0.045-3.723c0.058,0.044,0.089,0.06,0.152,0.099
			c0.06,0.055,0.139,0.141,0.203,0.221C127.221,324.829,129.079,328.021,130.277,330.999z M258.938,187.816
			c-0.24-0.012-0.493-0.043-0.733-0.066c-6.712-0.657-12.139-4.843-12.182-9.534c-0.047-4.503,5.235-7.789,11.733-7.355
			c6.209,0.447,11.668,4.175,12.561,8.454c0.034,0.155,0.096,0.299,0.133,0.462c0.015,0.164,0.013,0.324,0.013,0.488
			c0.219,4.417-4.46,7.69-10.803,7.574C259.411,187.829,259.177,187.827,258.938,187.816z M259.584,230.598
			c-7.362,0.143-13.336,5.784-13.784,13.067c-3.85-0.048-7.696-0.083-11.514-0.098c-0.321-7.572-6.581-13.481-14.314-13.341
			c-7.612,0.156-14.079,6.208-14.784,13.649c-3.315,0.076-6.59,0.186-9.831,0.292c0.011-7.47-5.183-13.045-11.928-12.901
			c0.247-2.805,0.526-5.565,0.827-8.287c6.839-1.016,12.977-6.923,14.092-13.574c2.698-0.241,5.415-0.447,8.154-0.642
			c-0.266,6.94,5.796,12.4,13.865,12.191c8.225-0.224,15.12-6.117,15.699-13.217c2.868,0.001,5.757,0.028,8.656,0.062
			c0.394,6.913,6.77,12.759,14.685,13.42C259.476,224.296,259.547,227.415,259.584,230.598z M273.226,244.346
			c0.018,0.251,0.041,0.517,0.047,0.782c-0.004,0.27-0.013,0.529-0.027,0.79c-0.298,6.636-5.796,11.843-12.653,11.741
			c-6.941-0.11-12.622-5.639-13.005-12.402c-0.027-0.258-0.036-0.513-0.035-0.774c0.002-0.27,0.019-0.537,0.051-0.803
			c0.422-6.328,5.6-11.226,12.011-11.413c0.261-0.009,0.527-0.023,0.794-0.015c0.272,0.012,0.537,0.035,0.797,0.063
			C267.548,232.915,272.706,238.081,273.226,244.346z M231.293,244.394c-0.002,0.232-0.021,0.466-0.048,0.706
			c-0.466,6.142-5.719,11.067-12.02,11.065c-6.194,0.02-11.053-4.811-11.189-10.829c-0.005-0.236-0.016-0.472-0.013-0.713
			c0.013-0.239,0.039-0.464,0.068-0.708c0.61-5.912,5.738-10.71,11.793-10.806c6.145-0.118,11.121,4.561,11.399,10.57
			C231.283,243.91,231.296,244.151,231.293,244.394z M192.011,245.048c-0.011,0.272-0.096,0.532-0.12,0.789
			c-0.652,5.653-4.984,10.258-10.114,10.787c-0.238,0.02-0.467,0.085-0.694,0.091c-0.241-0.003-0.457-0.055-0.684-0.061
			c-4.882-0.276-8.465-4.491-8.428-9.897c0.001-0.256-0.029-0.483-0.019-0.731c0.015-0.261,0.086-0.495,0.122-0.752
			c0.697-5.356,4.828-9.843,9.681-10.576c0.227-0.022,0.449-0.101,0.676-0.115c0.24-0.006,0.459,0.02,0.692,0.023
			c4.997,0.028,8.802,4.148,8.864,9.665C191.985,244.544,192.021,244.779,192.011,245.048z M176.094,210.787
			c1.087-4.517,5.296-8.574,9.939-9.54c0.221-0.048,0.418-0.113,0.641-0.153c0.228-0.028,0.429-0.005,0.653-0.024
			c4.703-0.355,8.069,2.747,7.837,7.331c-0.011,0.206,0.005,0.404-0.014,0.63c-0.028,0.228-0.108,0.436-0.154,0.658
			c-0.941,4.872-5.381,9.145-10.369,9.987c-0.233,0.036-0.449,0.119-0.686,0.142c-0.228,0.021-0.423-0.005-0.656,0.001
			c-4.704,0.18-7.834-3.164-7.395-7.762c0.021-0.223,0.002-0.421,0.039-0.64C175.962,211.198,176.048,210.992,176.094,210.787z
			 M232.934,207.073c-0.009,0.223-0.086,0.446-0.105,0.673c-0.579,5.508-5.924,10.059-12.309,10.224
			c-6.31,0.181-11.022-4.004-10.962-9.41c0-0.224-0.036-0.442-0.016-0.663c0.019-0.211,0.086-0.426,0.121-0.652
			c0.814-4.975,5.646-9.092,11.33-9.656c0.247-0.018,0.493-0.082,0.741-0.089c0.269-0.017,0.493,0.033,0.746,0.037
			c5.726,0.08,10.17,3.87,10.392,8.88C232.888,206.644,232.95,206.842,232.934,207.073z M271.754,208.308
			c0.352,5.653-4.441,10.124-10.829,10.239c-0.254,0.006-0.525,0.014-0.78,0c-0.269-0.012-0.528-0.043-0.794-0.065
			c-6.245-0.597-11.274-5.191-11.688-10.643c-0.021-0.223-0.047-0.449-0.047-0.684c-0.012-0.219,0.065-0.434,0.075-0.646
			c0.353-5.164,5.059-8.996,10.979-9.028c0.251,0.003,0.494-0.038,0.756-0.022c0.238,0.012,0.486,0.089,0.734,0.108
			C266.285,198.233,271.409,202.872,271.754,208.308L271.754,208.308L271.754,208.308z M213.029,179.322
			c0.039-0.155,0.101-0.307,0.138-0.471c0.869-3.475,5.243-6.472,10.268-6.98c0.209-0.037,0.436-0.081,0.663-0.098
			c0.235-0.012,0.454,0.002,0.668,0.005c5.249-0.075,9.306,2.694,9.136,6.414c-0.211,3.969-4.878,7.429-10.547,7.984
			c-0.24,0.022-0.469,0.07-0.734,0.087c-0.234,0.014-0.456-0.014-0.696-0.016c-5.314,0.023-9.105-2.739-8.896-6.431
			C213.036,179.651,213.005,179.497,213.029,179.322L213.029,179.322z M216.502,160.198c0.603-2.394,5.134-4.652,10.086-4.999
			c5.001-0.354,8.938,1.333,8.755,3.736c-0.203,2.528-4.481,4.834-9.639,5.336c-0.219,0.018-0.426,0.055-0.648,0.06
			c-0.221,0.015-0.414,0.005-0.623,0.012C219.372,164.519,215.844,162.727,216.502,160.198z M192.497,175.74
			c4.723-0.914,8.007,1.161,7.552,4.667c-0.023,0.155-0.002,0.281-0.042,0.437c-0.033,0.176-0.122,0.328-0.168,0.498
			c-1.095,3.69-5.51,7.244-10.291,8.28c-0.216,0.048-0.429,0.127-0.649,0.163c-0.209,0.036-0.388,0.033-0.587,0.054
			c-4.71,0.541-7.573-1.933-6.453-5.689C182.963,180.429,187.71,176.675,192.497,175.74z M189.311,190.758
			c5.553-1.165,10.699-5.307,11.908-9.605c3.317-0.445,6.685-0.827,10.101-1.158c-0.342,4.381,4.175,7.684,10.485,7.624
			c-0.22,2.424-0.415,4.914-0.608,7.465c-7.305,0.639-13.591,5.981-14.574,12.377c-2.74,0.189-5.444,0.409-8.122,0.646
			c0.389-6.248-4.266-10.46-10.667-9.831C188.307,195.707,188.799,193.194,189.311,190.758z M149.527,216.933
			c1.049-4.602,4.995-9.144,8.83-10.182c3.863-1.049,6.341,1.686,5.703,6.193c-0.023,0.176-0.026,0.37-0.068,0.572
			c-0.034,0.215-0.114,0.42-0.173,0.633c-1.157,4.571-4.858,8.77-8.655,9.846c-0.173,0.057-0.35,0.134-0.522,0.181
			c-0.162,0.028-0.303,0.017-0.457,0.033C150.556,224.629,148.483,221.479,149.527,216.933z M154.696,226.894
			c5.139-1.285,10.195-7.021,11.631-13.211c2.172-0.408,4.394-0.801,6.667-1.167c-0.772,6.269,3.506,10.911,9.932,10.583
			c-0.318,2.725-0.6,5.488-0.863,8.286c-6.474,0.87-12.038,6.96-12.88,14.091c-2.477,0.171-4.885,0.338-7.234,0.519
			c0.276-6.863-3.388-11.759-8.405-11.341C153.901,232.028,154.282,229.439,154.696,226.894z M144.536,248.359
			c0.02-0.232,0.078-0.444,0.106-0.671c0.704-4.925,3.905-9.218,7.534-10.063c0.165-0.036,0.319-0.11,0.49-0.13
			c0.18-0.017,0.34,0.013,0.509,0.005c3.783-0.201,6.506,3.506,6.346,8.691c-0.007,0.241,0.016,0.464-0.005,0.707
			c-0.015,0.244-0.083,0.48-0.114,0.728c-0.727,5.545-4.431,10.148-8.529,10.359c-3.854,0.196-6.586-3.776-6.351-8.954
			C144.533,248.8,144.514,248.581,144.536,248.359z M126.928,251.054c0.489-4.51,2.817-8.633,5.17-9.218
			c2.44-0.588,4.063,2.521,3.774,7.028c-0.008,0.228-0.002,0.413-0.019,0.64c-0.028,0.21-0.073,0.424-0.109,0.647
			c-0.595,4.408-2.781,8.105-5.094,8.655c-0.112,0.029-0.219,0.093-0.334,0.103c-0.112,0.006-0.188-0.023-0.288-0.024
			C127.843,258.788,126.454,255.409,126.928,251.054z M134.725,282.633c-0.014,4.41-1.69,7.618-3.95,7.547
			c-0.107-0.009-0.219,0.021-0.313,0.005c-0.115-0.018-0.214-0.069-0.32-0.115c-2.099-0.657-3.881-4.209-4.197-8.331
			c-0.018-0.212-0.034-0.408-0.047-0.613c-0.018-0.21,0.006-0.394,0.006-0.593c-0.006-4.126,1.542-7.381,3.619-7.639
			c0.108-0.012,0.203-0.069,0.312-0.048c0.106,0,0.216,0.053,0.33,0.074c2.289,0.376,4.209,3.962,4.53,8.43
			c0.004,0.212,0.04,0.422,0.042,0.632C134.752,282.202,134.729,282.412,134.725,282.633z M116.107,279.667
			c-0.169-4.039,0.707-7.288,1.895-7.256c1.276,0.042,2.404,3.356,2.664,7.477c0.006,0.189,0.032,0.374,0.042,0.577
			c0.005,0.187-0.002,0.364,0.002,0.57c0.076,3.882-0.737,6.684-1.928,6.601c-0.059-0.002-0.102,0.018-0.171,0.005
			c-0.044-0.016-0.099-0.062-0.146-0.097C117.318,286.937,116.256,283.51,116.107,279.667z M119.183,304.789
			c-0.72-3.478-0.399-5.863,0.661-5.552c0.052,0.007,0.101,0.007,0.161,0.032c0.056,0.028,0.118,0.106,0.18,0.152
			c1.222,0.881,2.685,4.188,3.481,7.745c0.045,0.175,0.086,0.341,0.121,0.528c0.039,0.18,0.056,0.334,0.08,0.505
			c0.589,3.393,0.178,5.432-0.953,4.818c-0.062-0.032-0.118-0.035-0.173-0.085c-0.052-0.035-0.106-0.113-0.163-0.15
			C121.363,311.689,119.868,308.244,119.183,304.789z M137.894,313.253c0.762,4.426-0.66,7.164-3.152,6.137
			c-2.218-0.902-4.598-4.726-5.488-8.681c-0.036-0.166-0.096-0.353-0.126-0.537c-0.045-0.191-0.052-0.362-0.078-0.551
			c-0.565-3.72,0.527-6.26,2.549-5.939c0.1,0.012,0.183,0.005,0.29,0.018c0.12,0.035,0.245,0.108,0.352,0.161
			C134.658,304.858,137.14,308.945,137.894,313.253z M131.418,302.224c-2.42-0.415-3.727,2.655-3.025,7.125
			c-1.517-0.63-2.941-1.271-4.217-1.93c-0.931-4.271-2.698-8.241-4.16-9.249c-0.465-3.114-0.835-6.28-1.128-9.459
			c1.389,0.157,2.323-3.098,2.233-7.611c1.086,0.145,2.279,0.302,3.526,0.461c0.363,5.711,2.864,10.695,5.77,11.555
			C130.689,296.188,131.015,299.219,131.418,302.224z M136.566,281.482c-0.387-6.31-3.107-11.387-6.344-11.735
			c0.045-2.605,0.133-5.203,0.263-7.799c3.27-0.577,6.359-5.811,7.153-12.055c1.603-0.22,3.278-0.442,5.008-0.648
			c-0.394,6.684,3.137,11.908,8.081,11.73c5.374-0.212,10.248-6.242,11.101-13.532c2.354-0.176,4.771-0.354,7.242-0.49
			c-0.178,7.228,4.653,12.989,11.21,13.26c-0.101,3.23-0.167,6.468-0.216,9.716c-6.43,0.348-11.44,6.142-11.638,13.345
			c-2.638-0.115-5.208-0.221-7.706-0.339c-0.454-7.341-4.954-13.19-10.235-13.197c-4.889-0.016-8.708,5.381-8.755,12.123
			C139.945,281.727,138.225,281.614,136.566,281.482z M191.137,284.893c0.002,0.279-0.058,0.519-0.068,0.789
			c-0.292,5.678-4.295,9.98-9.332,10.065c-0.232-0.002-0.462,0.037-0.702,0.025c-0.226-0.009-0.45-0.088-0.686-0.122
			c-4.856-0.673-8.776-5.242-9.217-10.732c-0.028-0.261-0.083-0.489-0.08-0.759c-0.012-0.265,0.033-0.503,0.04-0.763
			c0.233-5.505,4.03-9.828,8.91-10.169c0.24-0.005,0.459-0.067,0.697-0.067c0.24,0.005,0.467,0.065,0.696,0.092
			c5.097,0.464,9.23,5.088,9.66,10.838C191.066,284.354,191.126,284.624,191.137,284.893z M143.641,282.665
			c-0.006-0.231,0.028-0.447,0.031-0.694c0.101-5.129,3.021-9.191,6.777-9.138c3.982,0.046,7.354,4.491,7.755,9.973
			c0.025,0.249,0.068,0.491,0.082,0.747c0.002,0.249-0.032,0.477-0.034,0.731c-0.138,5.422-3.284,9.41-7.247,8.997
			c-3.732-0.394-6.877-4.795-7.292-9.931C143.7,283.131,143.648,282.91,143.641,282.665z M194.224,323.035
			c0.487,6.338-4.155,10.764-10.261,9.895c-5.869-0.826-11.169-6.398-11.863-12.489c-0.694-6.043,3.306-10.596,9.03-10.407
			c0.229,0,0.43-0.044,0.656-0.014c0.235,0.021,0.468,0.111,0.712,0.136C188.534,311.108,193.766,316.724,194.224,323.035z
			 M218.965,272.003c7.429,0.065,13.497,6.264,13.437,13.774c-0.036,7.443-6.097,13.356-13.437,13.135
			c-6.986-0.18-12.717-5.861-13.166-12.814c-0.005-0.27-0.041-0.53-0.041-0.793c-0.002-0.279,0.029-0.551,0.041-0.83
			C206.181,277.474,211.917,271.938,218.965,272.003z M309.554,247.159c0.332,6.614-4.314,11.865-10.398,11.624
			c-6.079-0.244-11.256-5.671-11.842-12.247c-0.018-0.257-0.056-0.513-0.06-0.8c-0.005-0.261,0.006-0.507,0.013-0.76
			c0.18-6.416,4.943-11.085,10.906-10.569C304.147,234.94,309.227,240.661,309.554,247.159L309.554,247.159z M293.121,191.758
			c-6.07-1.047-11.715-5.63-12.86-10.265c-0.044-0.176-0.114-0.341-0.143-0.5c-0.027-0.176-0.009-0.311-0.026-0.45
			c-0.414-4.191,3.636-6.613,9.263-5.462c5.465,1.13,10.747,5.34,12.194,9.573c0.06,0.144,0.143,0.296,0.18,0.443
			c0.042,0.166,0.042,0.317,0.06,0.472C302.685,189.979,298.964,192.773,293.121,191.758z M309.814,187.68
			c-0.06-0.165-0.146-0.347-0.206-0.506c-0.031-0.144-0.049-0.261-0.08-0.405c-1.047-4.057,1.667-5.946,6.131-4.29
			c4.419,1.654,9.205,6.321,10.803,10.517c1.614,4.285-0.516,6.745-4.853,5.59c-0.134-0.048-0.272-0.05-0.434-0.097
			c-0.173-0.051-0.343-0.15-0.508-0.224C316.088,196.619,311.391,192.008,309.814,187.68z M315.785,214.12
			c-0.96-5.746,2.132-9.274,6.861-8.224c0.174,0.037,0.328,0.038,0.506,0.098c0.143,0.042,0.305,0.126,0.473,0.172
			c4.404,1.528,8.676,6.581,9.988,11.81c0.059,0.197,0.128,0.375,0.171,0.573c0.041,0.206,0.039,0.384,0.073,0.589
			c0.859,5.287-1.775,8.887-6.18,8.296c-0.161-0.03-0.302-0.002-0.474-0.042c-0.175-0.035-0.356-0.122-0.541-0.165
			C321.653,225.905,316.804,220.127,315.785,214.12z M338.188,250.094c0.49,6.73-3.137,12.004-8.142,11.71
			c-5.378-0.309-10.146-6.524-10.572-13.799c-0.401-6.901,3.331-11.862,8.369-11.416c0.171,0.021,0.345,0.023,0.522,0.069
			c0.175,0.021,0.329,0.089,0.494,0.142C333.587,237.908,337.705,243.689,338.188,250.094z M339.695,220.965
			c-0.051-0.193-0.136-0.387-0.167-0.593c-0.036-0.174-0.053-0.338-0.085-0.512c-0.951-5.005,0.695-7.807,3.759-6.607
			c0.108,0.055,0.229,0.065,0.347,0.125c0.086,0.037,0.192,0.125,0.287,0.185c2.978,1.616,6.19,6.441,7.508,11.237
			c0.053,0.164,0.108,0.329,0.145,0.498c0.059,0.189,0.079,0.331,0.102,0.513c1.078,4.965-0.379,8.202-3.432,7.169
			C344.817,231.853,341.09,226.489,339.695,220.965z M354.978,227.618c-0.049-0.163-0.114-0.348-0.148-0.542
			c-0.045-0.152-0.068-0.291-0.102-0.451c-1.122-4.72-0.516-7.205,1.363-5.625c1.795,1.48,4.182,6.336,5.413,10.896
			c1.256,4.689,0.88,7.742-0.824,6.717C358.848,237.491,356.333,232.621,354.978,227.618z"/>
	</g>
</g>
</svg>
